<svg width="121" height="149" viewBox="0 0 121 149" fill="none" xmlns="http://www.w3.org/2000/svg">
<g filter="url(#filter0_d_2_227)">
<path d="M60.3996 0.000976633C45.5387 0.00023357 31.278 5.86483 20.7171 16.3201C10.1562 26.7754 4.14861 40.9764 4 55.8365C4 94.4703 53.7021 137.475 55.8171 139.308C57.0941 140.4 58.7192 141 60.3996 141C62.0799 141 63.7051 140.4 64.982 139.308C67.4495 137.475 116.799 94.4703 116.799 55.8365C116.651 40.9764 110.643 26.7754 100.082 16.3201C89.5211 5.86483 75.2605 0.00023357 60.3996 0.000976633ZM60.3996 77.5504C55.5194 77.5504 50.7487 76.1032 46.691 73.3919C42.6332 70.6806 39.4706 66.8269 37.603 62.3182C35.7354 57.8095 35.2468 52.8482 36.1989 48.0618C37.151 43.2753 39.501 38.8787 42.9518 35.4278C46.4027 31.977 50.7993 29.627 55.5858 28.6749C60.3722 27.7228 65.3335 28.2114 69.8422 30.079C74.3509 31.9466 78.2046 35.1092 80.9159 39.167C83.6272 43.2247 85.0744 47.9954 85.0744 52.8756C85.0744 59.4197 82.4747 65.6959 77.8473 70.3233C73.2199 74.9507 66.9437 77.5504 60.3996 77.5504Z" fill="#1F4590"/>
</g>
<defs>
<filter id="filter0_d_2_227" x="0" y="0.000976562" width="120.799" height="148.999" filterUnits="userSpaceOnUse" color-interpolation-filters="sRGB">
<feFlood flood-opacity="0" result="BackgroundImageFix"/>
<feColorMatrix in="SourceAlpha" type="matrix" values="0 0 0 0 0 0 0 0 0 0 0 0 0 0 0 0 0 0 127 0" result="hardAlpha"/>
<feOffset dy="4"/>
<feGaussianBlur stdDeviation="2"/>
<feComposite in2="hardAlpha" operator="out"/>
<feColorMatrix type="matrix" values="0 0 0 0 0 0 0 0 0 0 0 0 0 0 0 0 0 0 0.25 0"/>
<feBlend mode="normal" in2="BackgroundImageFix" result="effect1_dropShadow_2_227"/>
<feBlend mode="normal" in="SourceGraphic" in2="effect1_dropShadow_2_227" result="shape"/>
</filter>
</defs>
</svg>
