<svg width="199" height="45" viewBox="0 0 199 45" fill="none" xmlns="http://www.w3.org/2000/svg">
<path d="M20.5 6.5V0H0V44.6588H20.5V38.1588C16.3006 38.1588 12.2731 36.491 9.3037 33.5224C6.33426 30.5538 4.66605 26.5277 4.66605 22.3294C4.66605 18.1312 6.33426 14.1049 9.3037 11.1363C12.2731 8.16775 16.3006 6.5 20.5 6.5Z" fill="#394149"/>
<path d="M20.5 6.5V38.1588C24.6994 38.1588 28.7269 36.491 31.6964 33.5224C34.6658 30.5538 36.334 26.5277 36.334 22.3294C36.334 18.1312 34.6658 14.1049 31.6964 11.1363C28.7269 8.16775 24.6994 6.5 20.5 6.5Z" fill="#394149"/>
<path d="M47.8384 10.4766H52.4279V32.5766H47.8384V10.4766Z" fill="#394149"/>
<path d="M54.998 25.0058C54.998 23.4158 55.4703 21.8616 56.3549 20.5402C57.2394 19.2188 58.4965 18.1897 59.9668 17.5833C61.4372 16.977 63.0544 16.8207 64.6136 17.1342C66.1728 17.4478 67.6038 18.2171 68.7252 19.3445C69.8466 20.4722 70.608 21.9071 70.9128 23.4677C71.2174 25.0283 71.0518 26.6441 70.4368 28.1105C69.8218 29.5768 68.7854 30.8277 67.4585 31.7043C66.1317 32.5811 64.5743 33.0442 62.9839 33.0352C61.929 33.0435 60.8831 32.8411 59.9075 32.4398C58.9319 32.0387 58.0461 31.4468 57.3023 30.699C56.5585 29.9512 55.9716 29.0623 55.5759 28.0847C55.1802 27.1071 54.9838 26.0603 54.998 25.0058ZM66.5025 25.0058C66.4845 24.3203 66.2646 23.6553 65.8705 23.0942C65.4764 22.5329 64.9257 22.1002 64.2868 21.8503C63.6481 21.6004 62.9499 21.5443 62.2795 21.6891C61.609 21.8338 60.9961 22.1729 60.5174 22.6641C60.0387 23.1552 59.7155 23.7765 59.5882 24.4503C59.4609 25.1242 59.5351 25.8205 59.8016 26.4523C60.0681 27.0841 60.515 27.6235 61.0865 28.0027C61.6579 28.382 62.3285 28.5843 63.0145 28.5846C63.4815 28.5938 63.9454 28.5065 64.3771 28.3281C64.8088 28.15 65.1991 27.8846 65.5236 27.5488C65.848 27.2129 66.0997 26.8136 66.2629 26.3762C66.4262 25.9386 66.4973 25.4721 66.4719 25.0058H66.5025Z" fill="#394149"/>
<path d="M89.129 17.4353V31.827C89.129 36.9047 85.1514 39.0611 81.1279 39.0611C79.7086 39.1775 78.2851 38.8957 77.0176 38.2472C75.75 37.5987 74.6886 36.6093 73.9529 35.3906L77.8234 33.1576C78.137 33.7899 78.6359 34.3114 79.2537 34.6529C79.8714 34.9944 80.5785 35.1397 81.2809 35.0694C81.7283 35.1244 82.1824 35.0801 82.6106 34.9394C83.039 34.7985 83.4308 34.565 83.7582 34.2551C84.0857 33.9453 84.3406 33.567 84.5047 33.1472C84.6689 32.7275 84.7382 32.2767 84.7077 31.827V30.4353C84.1737 31.0827 83.4959 31.5965 82.7286 31.9364C81.961 32.2762 81.125 32.4325 80.2865 32.3929C78.2577 32.3929 76.3122 31.5872 74.8777 30.1531C73.4431 28.7191 72.6372 26.774 72.6372 24.7459C72.6372 22.7177 73.4431 20.7727 74.8777 19.3386C76.3122 17.9045 78.2577 17.0988 80.2865 17.0988C81.125 17.0592 81.961 17.2155 82.7286 17.5553C83.4959 17.8952 84.1737 18.409 84.7077 19.0564V17.527L89.129 17.4353ZM84.7077 24.7C84.7382 23.9683 84.5491 23.2441 84.1646 22.6207C83.7802 21.9973 83.2181 21.5032 82.5503 21.2017C81.8827 20.9003 81.1403 20.8055 80.4182 20.9294C79.6962 21.0532 79.0277 21.3902 78.4988 21.8969C77.97 22.4036 77.6048 23.0569 77.4503 23.7728C77.2958 24.4888 77.3589 25.2343 77.6317 25.914C77.9046 26.5937 78.3746 27.1762 78.9812 27.5867C79.5879 27.9972 80.3036 28.217 81.0361 28.2176C81.5142 28.252 81.9941 28.1858 82.4448 28.0234C82.8956 27.8608 83.3075 27.6055 83.6534 27.274C83.9994 26.9425 84.272 26.5421 84.4536 26.0988C84.6352 25.6554 84.7218 25.1788 84.7077 24.7Z" fill="#394149"/>
<path d="M91.7146 25.006C91.7146 23.4173 92.1861 21.8643 93.0693 20.5435C93.9525 19.2227 95.2078 18.1935 96.6763 17.5864C98.1448 16.979 99.7604 16.8209 101.319 17.132C102.877 17.4431 104.308 18.2093 105.431 19.3337C106.554 20.4583 107.317 21.8904 107.626 23.4489C107.934 25.0075 107.773 26.6224 107.162 28.0893C106.552 29.5563 105.52 30.8092 104.197 31.6897C102.875 32.5702 101.32 33.0385 99.7311 33.0354C98.6742 33.0457 97.6258 32.8448 96.6477 32.4448C95.6695 32.0447 94.7809 31.4534 94.0344 30.7055C93.2876 29.9576 92.6979 29.0683 92.2995 28.0896C91.9013 27.1109 91.7024 26.0625 91.7146 25.006ZM103.219 25.006C103.201 24.3199 102.981 23.6543 102.586 23.0927C102.191 22.5313 101.64 22.0986 101 21.8491C100.36 21.5997 99.6613 21.5445 98.9905 21.6905C98.3196 21.8364 97.7068 22.1772 97.2287 22.6698C96.7506 23.1624 96.4286 23.7852 96.3031 24.46C96.1775 25.1348 96.2539 25.8316 96.5227 26.4631C96.7915 27.0947 97.2408 27.6329 97.8143 28.0104C98.3877 28.3877 99.0598 28.5876 99.7464 28.5848C100.213 28.594 100.677 28.5067 101.109 28.3283C101.541 28.1502 101.931 27.8848 102.255 27.549C102.58 27.2131 102.832 26.8138 102.995 26.3764C103.158 25.9388 103.229 25.4723 103.204 25.006H103.219Z" fill="#394149"/>
<path d="M109.874 13.3825C109.874 12.8442 110.033 12.3177 110.333 11.8701C110.632 11.4224 111.057 11.0734 111.555 10.8674C112.052 10.6613 112.6 10.6074 113.128 10.7125C113.656 10.8175 114.142 11.0768 114.523 11.4575C114.903 11.8383 115.163 12.3234 115.268 12.8513C115.373 13.3795 115.319 13.9268 115.113 14.4243C114.907 14.9217 114.558 15.3469 114.11 15.646C113.662 15.9452 113.136 16.1049 112.597 16.1049C111.877 16.0969 111.189 15.8075 110.68 15.2987C110.171 14.7899 109.882 14.1021 109.874 13.3825ZM110.317 17.4355H114.907V32.5766H110.317V17.4355Z" fill="#394149"/>
<path d="M134.55 25.0063C134.602 26.0132 134.454 27.0205 134.114 27.97C133.775 28.9194 133.251 29.7924 132.573 30.5386C131.894 31.285 131.075 31.8897 130.162 32.3182C129.249 32.7468 128.261 32.9906 127.253 33.0357C126.398 33.0926 125.541 32.9557 124.747 32.6353C123.952 32.3147 123.24 31.819 122.664 31.1851V38.6639H118.074V17.4357H122.664V18.858C123.241 18.2259 123.953 17.7325 124.748 17.4147C125.543 17.0968 126.399 16.9628 127.253 17.0227C128.257 17.0678 129.241 17.3103 130.151 17.7359C131.061 18.1615 131.878 18.7623 132.556 19.5036C133.233 20.2449 133.758 21.1124 134.101 22.0566C134.443 23.0007 134.596 24.003 134.55 25.0063ZM129.961 25.0063C129.943 24.2958 129.715 23.6067 129.307 23.0251C128.899 22.4434 128.328 21.995 127.666 21.7364C127.004 21.4776 126.281 21.4201 125.586 21.5707C124.891 21.7214 124.257 22.0738 123.761 22.5835C123.266 23.0933 122.933 23.7378 122.802 24.4364C122.672 25.1349 122.751 25.8563 123.029 26.5103C123.307 27.1641 123.772 27.7214 124.366 28.1123C124.959 28.5033 125.655 28.7102 126.366 28.7074C126.853 28.7281 127.338 28.6456 127.791 28.4655C128.244 28.2853 128.653 28.0116 128.993 27.6621C129.332 27.3126 129.594 26.8952 129.761 26.4376C129.928 25.9799 129.996 25.4922 129.961 25.0063Z" fill="#394149"/>
<path d="M148.518 28.034C148.518 31.5211 145.458 33.0046 142.215 33.0046C140.892 33.1236 139.564 32.8433 138.402 32.1999C137.24 31.5564 136.298 30.5795 135.698 29.3952L139.645 27.1623C139.801 27.708 140.14 28.1835 140.605 28.5092C141.07 28.835 141.633 28.9912 142.2 28.9517C143.286 28.9517 143.837 28.6152 143.837 28.0035C143.837 26.3364 136.386 27.2235 136.386 21.9776C136.386 18.674 139.171 17.0223 142.322 17.0223C143.52 16.9686 144.71 17.2404 145.766 17.8086C146.822 18.3767 147.704 19.2202 148.319 20.2493L144.372 22.3293C144.198 21.9348 143.913 21.5992 143.552 21.3631C143.19 21.1269 142.769 21.0004 142.337 20.9988C141.542 20.9988 141.068 21.3046 141.068 21.8399C141.068 23.5835 148.518 22.4364 148.518 28.034Z" fill="#394149"/>
<path d="M165.147 17.4355V32.5767H160.558V31.1544C160.036 31.784 159.374 32.2822 158.626 32.609C157.876 32.9358 157.061 33.0819 156.244 33.0355C153.184 33.0355 150.568 30.8485 150.568 26.765V17.4355H155.157V26.0767C155.121 26.438 155.164 26.8027 155.283 27.1459C155.402 27.489 155.593 27.8022 155.844 28.064C156.097 28.3257 156.403 28.5297 156.741 28.662C157.079 28.7942 157.441 28.8514 157.804 28.8297C159.456 28.8297 160.619 27.8508 160.619 25.7708V17.4355H165.147Z" fill="#394149"/>
<path d="M191.155 23.2777V32.5765H186.565V23.6753C186.565 22.1459 185.846 21.1977 184.393 21.1977C182.94 21.1977 182.022 22.253 182.022 24.0424V32.5765H177.432V23.6753C177.432 22.1459 176.713 21.1977 175.26 21.1977C173.806 21.1977 172.888 22.253 172.888 24.0424V32.5765H168.299V17.4353H172.888V18.8271C173.364 18.2123 173.984 17.7253 174.695 17.4103C175.405 17.0952 176.184 16.9618 176.958 17.0224C177.733 16.9819 178.508 17.144 179.202 17.4925C179.897 17.8411 180.489 18.3643 180.92 19.0106C181.425 18.3352 182.092 17.7987 182.86 17.4511C183.626 17.1033 184.471 16.9559 185.311 17.0224C188.891 17.0224 191.155 19.5001 191.155 23.2777Z" fill="#394149"/>
<path d="M195.01 17.3437C196.869 17.3437 198.376 15.8372 198.376 13.979C198.376 12.1207 196.869 10.6143 195.01 10.6143C193.151 10.6143 191.644 12.1207 191.644 13.979C191.644 15.8372 193.151 17.3437 195.01 17.3437Z" fill="#394149"/>
</svg>
