<svg width="194" height="51" viewBox="0 0 194 51" fill="none" xmlns="http://www.w3.org/2000/svg">
<path d="M31.3406 11.9404H34.4012V33.1684H43.583V36.2184H31.3406V11.9404ZM53.1168 11.9404C54.9328 11.9404 56.708 12.4771 58.2179 13.4825C59.7278 14.488 60.9048 15.9169 61.5997 17.5889C62.2946 19.2609 62.4764 21.1007 62.1222 22.8754C61.7679 24.6504 60.8935 26.2808 59.6092 27.5604C58.3252 28.8402 56.6891 29.7116 54.908 30.0646C53.127 30.4176 51.2809 30.2365 49.6031 29.544C47.9252 28.8513 46.4913 27.6786 45.4824 26.1739C44.4735 24.6692 43.935 22.9002 43.935 21.0904C43.935 19.8889 44.1725 18.6989 44.6339 17.5889C45.0952 16.4787 45.7716 15.47 46.6243 14.6205C47.4769 13.7707 48.489 13.0967 49.6031 12.6369C50.717 12.1771 51.9111 11.9404 53.1168 11.9404ZM53.1168 27.1904C54.3274 27.1904 55.5109 26.8327 56.5176 26.1624C57.5242 25.492 58.3088 24.5394 58.772 23.4248C59.2354 22.3101 59.3566 21.0837 59.1203 19.9003C58.8842 18.7171 58.3011 17.6302 57.4451 16.7771C56.589 15.924 55.4984 15.343 54.311 15.1077C53.1235 14.8722 51.8928 14.993 50.7744 15.4548C49.6559 15.9164 48.6997 16.6983 48.0272 17.7014C47.3546 18.7046 46.9956 19.884 46.9956 21.0904C47.0037 22.703 47.6521 24.2467 48.7992 25.3841C49.9463 26.5214 51.4986 27.1599 53.1168 27.1599V27.1904ZM46.9956 33.1989H59.238V36.2489H46.9956V33.1989ZM86.1713 36.2489H83.1107V34.0682C81.1369 35.445 78.7867 36.1849 76.3774 36.1879C74.323 36.2017 72.2981 35.6999 70.4894 34.729C68.6806 33.7579 67.1461 32.3489 66.0275 30.6318C64.9087 28.9146 64.2415 26.9445 64.0875 24.9028C63.9334 22.8613 64.2975 20.8138 65.146 18.9493C65.9946 17.0847 67.3004 15.4629 68.943 14.2334C70.5858 13.0038 72.5126 12.2059 74.5459 11.9134C76.5794 11.6208 78.654 11.843 80.5785 12.5593C82.5032 13.2756 84.2161 14.4629 85.5592 16.0122L83.3097 18.0099C82.288 16.8717 80.9969 16.0064 79.5537 15.4929C78.1106 14.9793 76.5615 14.8338 75.0476 15.0697C73.5335 15.3057 72.103 15.9155 70.8859 16.8435C69.669 17.7716 68.7045 18.9882 68.0804 20.383C67.4562 21.7776 67.1922 23.3057 67.3125 24.8281C67.4328 26.3505 67.9333 27.8186 68.7689 29.0987C69.6044 30.3788 70.748 31.4302 72.0958 32.1571C73.4433 32.8839 74.9522 33.263 76.4845 33.2599C77.7562 33.2625 79.0135 32.9914 80.1704 32.465C81.3272 31.9385 82.3563 31.1693 83.1872 30.2099H74.9236V27.1599H86.2019L86.1713 36.2489ZM97.4344 12.0014C99.2504 12.0014 101.026 12.5381 102.535 13.5435C104.045 14.549 105.222 15.9779 105.917 17.6499C106.612 19.3219 106.794 21.1617 106.44 22.9365C106.085 24.7114 105.211 26.3418 103.927 27.6214C102.643 28.9012 101.007 29.7726 99.2256 30.1256C97.4446 30.4786 95.5985 30.2975 93.9206 29.605C92.2428 28.9123 90.8089 27.7396 89.8 26.2349C88.7911 24.7302 88.2525 22.9612 88.2525 21.1514C88.2444 19.9421 88.477 18.7433 88.9367 17.6241C89.3964 16.5049 90.0742 15.4876 90.9309 14.6311C91.7875 13.7746 92.8061 13.0958 93.9277 12.6339C95.0492 12.1721 96.2514 11.9363 97.465 11.9404L97.4344 12.0014ZM97.4344 27.2514C98.645 27.2514 99.8285 26.8937 100.835 26.2234C101.842 25.553 102.626 24.6004 103.09 23.4858C103.553 22.3711 103.674 21.1447 103.438 19.9613C103.202 18.7781 102.619 17.6912 101.763 16.8381C100.907 15.985 99.816 15.404 98.6286 15.1687C97.4411 14.9332 96.2104 15.054 95.0919 15.5158C93.9734 15.9774 93.0173 16.7593 92.3447 17.7624C91.6722 18.7656 91.3131 19.945 91.3131 21.1514C91.3373 22.7586 91.997 24.2914 93.1491 25.4166C94.3009 26.5416 95.852 27.1682 97.465 27.1599L97.4344 27.2514ZM91.3131 33.2599H103.556V36.3099H91.3131V33.2599ZM109.876 11.9404H112.936V36.1879H109.876V11.9404ZM117.175 11.9404H120.236C120.394 11.9238 120.552 11.9238 120.71 11.9404C121.992 11.8018 123.289 11.9339 124.516 12.3278C125.743 12.7218 126.873 13.3689 127.833 14.227C128.793 15.0851 129.56 16.1351 130.085 17.3084C130.611 18.4818 130.882 19.7522 130.882 21.0371C130.882 22.3219 130.611 23.5924 130.085 24.7657C129.56 25.939 128.793 26.989 127.833 27.8471C126.873 28.7052 125.743 29.3523 124.516 29.7463C123.289 30.1402 121.992 30.2723 120.71 30.1337H120.236V36.2337H117.175V11.9404ZM120.236 14.9904V27.0532H120.71C121.575 27.1679 122.454 27.0973 123.289 26.8458C124.123 26.5945 124.895 26.1682 125.551 25.5957C126.207 25.0233 126.733 24.3176 127.093 23.5262C127.453 22.7347 127.639 21.8757 127.639 21.0066C127.639 20.1375 127.453 19.2784 127.093 18.487C126.733 17.6955 126.207 16.9899 125.551 16.4174C124.895 15.8447 124.123 15.4187 123.289 15.1672C122.454 14.9159 121.575 14.8453 120.71 14.9599C120.544 14.9772 120.379 15.013 120.221 15.0667L120.236 14.9904ZM142.288 13.6942L140.023 15.4784C139.632 15.0716 139.133 14.7843 138.584 14.6504C138.035 14.5165 137.459 14.5415 136.924 14.7225C136.389 14.9034 135.917 15.2328 135.563 15.672C135.209 16.1112 134.988 16.6419 134.927 17.2017V17.4457C134.927 18.7877 135.86 19.6874 137.681 19.8094C144.69 20.2364 147.904 23.5152 147.904 27.8462V28.1207C147.723 29.8348 147.052 31.461 145.97 32.8061C144.888 34.1511 143.442 35.1581 141.802 35.7076C140.163 36.2569 138.4 36.3255 136.722 35.9051C135.045 35.4848 133.524 34.5931 132.341 33.3362L134.682 31.5367C135.227 32.1188 135.892 32.5757 136.632 32.8759C137.372 33.1761 138.169 33.3124 138.967 33.2752C140.441 33.3527 141.888 32.8596 143.005 31.899C144.123 30.9386 144.826 29.5848 144.966 28.1207V27.9072C144.966 23.8354 140.956 23.0882 137.482 22.7527C134.269 22.4477 131.958 20.4499 131.958 17.5677V17.4457C132.071 15.9451 132.758 14.5451 133.878 13.535C134.997 12.5247 136.462 11.9812 137.972 12.0167C138.772 11.9932 139.568 12.137 140.309 12.4391C141.05 12.7412 141.718 13.1947 142.272 13.7704L142.288 13.6942ZM159.886 33.0922C163.696 33.0922 166.711 28.9899 166.711 23.9422V11.7422H169.772V23.9422C169.772 30.6522 165.365 36.0659 159.947 36.0659C154.53 36.0659 150.123 30.6522 150.123 23.9422V11.7422H153.183V23.9422C153.061 29.0662 156.076 33.1684 159.871 33.1684L159.886 33.0922ZM193.262 36.1422H190.201V21.0447L183.147 30.1947L176.092 21.0447V36.1879H173.031V11.9404L183.131 25.1927L193.231 11.9404L193.262 36.1422Z" fill="#394149"/>
<path d="M16.6497 8.296C16.6497 6.09576 15.7727 3.98563 14.2115 2.42984C12.6503 0.874038 10.5327 0 8.32485 0C6.11696 0 3.99951 0.874038 2.43829 2.42984C0.877078 3.98563 0 6.09576 0 8.296V33.3823L6.85576 38.2775V50.203H9.79394V38.2775L16.6497 33.3823V8.296ZM13.7115 22.326L9.79394 26.23V22.57L13.7115 18.666V22.326ZM2.99939 18.666L6.91697 22.57V26.23L2.99939 22.326V18.666ZM13.7115 14.518L8.32485 19.886L2.93818 14.396V10.736L8.32485 16.104L13.7115 10.736V14.518ZM8.32485 2.928C9.50953 2.93322 10.6598 3.32531 11.5995 4.04419C12.5393 4.76308 13.2166 5.76912 13.5279 6.90825L8.32485 12.078L3.12182 6.90825C3.42167 5.75779 4.09413 4.7381 5.0349 4.00741C5.97567 3.27671 7.13211 2.87583 8.32485 2.86698V2.928ZM2.93818 31.903V26.413L6.85576 30.317V34.6785L2.93818 31.903ZM9.79394 34.6937V30.317L13.7115 26.413V31.8877L9.79394 34.6937Z" fill="#394149"/>
</svg>
