<svg width="236" height="61" viewBox="0 0 236 61" fill="none" xmlns="http://www.w3.org/2000/svg">
<path d="M78.8707 15.6826H73.3936V40.3316H88.5561V35.5018H78.8707V15.6826Z" fill="#243A5A"/>
<path d="M89.0791 31.9715C89.0791 37.2344 92.6193 40.7319 97.9628 40.7319C103.273 40.7319 106.813 37.2344 106.813 31.9715C106.813 26.7086 103.273 23.1777 97.9628 23.1777C92.6193 23.1777 89.0791 26.7086 89.0791 31.9715ZM94.2556 31.9381C94.2556 29.44 95.7252 27.7745 97.9628 27.7745C100.167 27.7745 101.637 29.44 101.637 31.9381C101.637 34.4698 100.167 36.1352 97.9628 36.1352C95.7252 36.1352 94.2556 34.4698 94.2556 31.9381Z" fill="#243A5A"/>
<path d="M107.641 31.7052C107.641 36.7348 110.914 40.1323 115.556 40.1323C117.793 40.1323 119.73 39.3329 120.699 38.0339V40.3322C120.699 42.6306 119.263 44.1627 116.725 44.1627C114.454 44.1627 112.884 43.0969 112.784 41.1983H107.574C108.041 45.7617 111.581 48.826 116.424 48.826C122.135 48.826 125.742 45.1288 125.742 39.2663V23.6776H121.1L120.833 25.3763C119.897 24.0106 117.927 23.1113 115.656 23.1113C110.98 23.1113 107.641 26.6088 107.641 31.7052ZM112.851 31.5719C112.851 29.1735 114.454 27.5747 116.491 27.5747C118.862 27.5747 120.599 29.1403 120.599 31.5719C120.599 34.0035 118.895 35.6689 116.524 35.6689C114.487 35.6689 112.851 34.0035 112.851 31.5719Z" fill="#243A5A"/>
<path d="M127.241 31.9715C127.241 37.2344 130.781 40.7319 136.125 40.7319C141.435 40.7319 144.975 37.2344 144.975 31.9715C144.975 26.7086 141.435 23.1777 136.125 23.1777C130.781 23.1777 127.241 26.7086 127.241 31.9715ZM132.417 31.9381C132.417 29.44 133.887 27.7745 136.125 27.7745C138.329 27.7745 139.798 29.44 139.798 31.9381C139.798 34.4698 138.329 36.1352 136.125 36.1352C133.887 36.1352 132.417 34.4698 132.417 31.9381Z" fill="#243A5A"/>
<path d="M149.409 21.0792C151.012 21.0792 152.315 19.78 152.315 18.148C152.315 16.5158 151.012 15.25 149.409 15.25C147.773 15.25 146.47 16.5158 146.47 18.148C146.47 19.78 147.773 21.0792 149.409 21.0792ZM146.804 40.332H151.981V23.6773H146.804V40.332Z" fill="#243A5A"/>
<path d="M154.995 48.3264H160.072V38.6667C161.039 39.9325 163.244 40.7985 165.548 40.7985C170.524 40.7985 173.53 37.0013 173.397 31.7384C173.262 26.3755 170.157 23.1445 165.515 23.1445C163.143 23.1445 160.906 24.1771 159.971 25.7094L159.703 23.6775H154.995V48.3264ZM160.171 32.0048C160.171 29.5067 161.841 27.8412 164.246 27.8412C166.683 27.8412 168.22 29.5399 168.22 32.0048C168.22 34.4698 166.683 36.1685 164.246 36.1685C161.841 36.1685 160.171 34.503 160.171 32.0048Z" fill="#243A5A"/>
<path d="M173.944 35.0693C174.077 38.4336 176.75 40.7651 180.958 40.7651C184.999 40.7651 187.805 38.6333 187.805 35.2025C187.805 32.7377 186.336 31.1055 183.596 30.4392L180.625 29.7065C179.556 29.44 178.888 29.1735 178.888 28.3074C178.888 27.4414 179.588 26.8751 180.625 26.8751C181.793 26.8751 182.56 27.6413 182.528 28.7738H187.17C187.036 25.3096 184.398 23.1445 180.724 23.1445C177.018 23.1445 174.246 25.343 174.246 28.6739C174.246 30.9056 175.481 32.7377 178.787 33.6037L181.726 34.3697C182.594 34.6029 182.961 35.0026 182.961 35.5689C182.961 36.4017 182.193 36.9346 180.891 36.9346C179.388 36.9346 178.586 36.2351 178.586 35.0693H173.944Z" fill="#243A5A"/>
<path d="M195.676 40.7654C197.715 40.7654 199.751 39.8327 200.786 38.467L201.121 40.3324H205.964V23.6777H200.82V32.3382C200.82 34.8363 200.086 36.202 197.715 36.202C195.877 36.202 194.675 35.3693 194.675 32.2716V23.6777H189.531V34.1368C189.531 38.1007 191.736 40.7654 195.676 40.7654Z" fill="#243A5A"/>
<path d="M214.12 40.3322V31.2388C214.12 28.4407 215.623 27.6413 217.092 27.6413C218.728 27.6413 219.797 28.6407 219.797 30.7058V40.3322H224.873V31.2388C224.873 28.4075 226.343 27.6081 227.812 27.6081C229.448 27.6081 230.551 28.6073 230.551 30.7058V40.3322H235.561V29.4401C235.561 25.6428 233.557 23.1113 229.248 23.1113C226.844 23.1113 224.873 24.277 224.005 26.0758C223.003 24.277 221.266 23.1113 218.494 23.1113C216.658 23.1113 214.955 23.944 213.953 25.2764L213.753 23.6776H208.942V40.3322H214.12Z" fill="#243A5A"/>
<path d="M0 30.5C0 16.1221 0 8.93324 4.47843 4.46662C8.95686 0 16.1648 0 30.5806 0C44.9965 0 52.2044 0 56.6829 4.46662C61.1613 8.93324 61.1613 16.1221 61.1613 30.5C61.1613 44.8778 61.1613 52.0667 56.6829 56.5334C52.2044 61 44.9965 61 30.5806 61C16.1648 61 8.95686 61 4.47843 56.5334C0 52.0667 0 44.8778 0 30.5Z" fill="#243A5A"/>
<path d="M36.6969 39.6504C37.5414 39.6504 38.2414 40.3398 38.0736 41.1653C37.7772 42.6232 37.057 43.9745 35.9867 45.042C34.553 46.472 32.6084 47.2754 30.5808 47.2754C28.5531 47.2754 26.6086 46.472 25.1749 45.042C24.1045 43.9745 23.3844 42.6232 23.088 41.1653C22.9202 40.3398 23.6201 39.6504 24.4646 39.6504H36.6969Z" fill="#2DF8BB"/>
<path d="M39.9113 27.1094C39.0956 27.3273 38.5961 28.1784 39.0097 28.9127C39.445 29.6855 40.0471 30.36 40.7797 30.8836C41.9298 31.7056 43.3301 32.1045 44.7422 32.0121C46.1541 31.9198 47.4903 31.3421 48.523 30.3774C49.5559 29.4127 50.2212 28.1206 50.4059 26.7214C50.5906 25.3222 50.2832 23.9024 49.536 22.7039C48.7888 21.5056 47.6479 20.6026 46.3081 20.149C44.9682 19.6953 43.5121 19.7191 42.1878 20.2162C41.3444 20.5328 40.5878 21.0289 39.9667 21.663C39.3766 22.2655 39.6383 23.2166 40.3696 23.6377L41.1453 24.0844C42.3249 24.7638 42.0924 26.5265 40.7765 26.8782L39.9113 27.1094Z" fill="#2DF8BB"/>
<path d="M21.25 27.1094C22.0657 27.3273 22.5653 28.1784 22.1517 28.9127C21.7163 29.6855 21.1142 30.36 20.3818 30.8836C19.2317 31.7056 17.8312 32.1045 16.4193 32.0121C15.0073 31.9198 13.6711 31.3421 12.6383 30.3774C11.6056 29.4127 10.9402 28.1206 10.7555 26.7214C10.5708 25.3222 10.8782 23.9024 11.6254 22.7039C12.3726 21.5056 13.5134 20.6026 14.8533 20.149C16.1932 19.6953 17.6494 19.7191 18.9737 20.2162C19.817 20.5328 20.5737 21.0289 21.1948 21.663C21.7848 22.2655 21.5231 23.2166 20.7917 23.6377L20.0161 24.0844C18.8364 24.7638 19.0691 26.5265 20.3849 26.8782L21.25 27.1094Z" fill="#2DF8BB"/>
</svg>
