<svg width="208" height="41" viewBox="0 0 208 41" fill="none" xmlns="http://www.w3.org/2000/svg">
<path d="M31.1047 17.9444C30.5253 18.5291 30.0817 19.2347 29.8054 20.0109C29.529 20.7872 29.4268 21.6151 29.5058 22.4356L29.4783 22.408C29.5596 23.3738 29.4297 24.3457 29.0978 25.256C28.766 26.1662 28.2401 26.9928 27.557 27.6782C26.8737 28.3634 26.0497 28.8911 25.1422 29.2238C24.2348 29.5567 23.2658 29.687 22.3031 29.6054L22.3307 29.633C21.179 29.5256 20.0224 29.7769 19.0183 30.3529C18.0143 30.929 17.2118 31.8016 16.7204 32.852C16.2289 33.9023 16.0722 35.079 16.2719 36.2219C16.4717 37.3647 17.0178 38.418 17.8361 39.238C18.6543 40.058 19.7047 40.605 20.8441 40.8041C21.9837 41.0035 23.1566 40.8452 24.2032 40.3514C25.2498 39.8573 26.1189 39.0517 26.6923 38.044C27.2657 37.0363 27.5153 35.8759 27.4071 34.7206L27.4361 34.7482C27.3548 33.7826 27.4845 32.8106 27.8164 31.9002C28.1483 30.99 28.6742 30.1634 29.3574 29.478C30.0406 28.7928 30.8647 28.2652 31.772 27.9324C32.6796 27.5995 33.6484 27.4692 34.6112 27.5508L34.5822 27.5232C35.5228 27.608 36.4698 27.4533 37.3351 27.0733C38.2003 26.6933 38.956 26.1004 39.532 25.3495C40.108 24.5987 40.4858 23.7139 40.6301 22.7777C40.7746 21.8413 40.681 20.8835 40.3582 19.993C40.0353 19.1026 39.4936 18.3083 38.7833 17.6838C38.073 17.0593 37.217 16.6247 36.2946 16.4205C35.3723 16.2162 34.4134 16.2487 33.507 16.5151C32.6005 16.7816 31.7759 17.2732 31.1093 17.9444H31.1047Z" fill="#394149"/>
<path d="M19.8285 26.0174L19.7995 25.9898C20.6177 26.0724 21.444 25.9717 22.2189 25.6948C22.9936 25.4178 23.6973 24.9718 24.2791 24.3887C24.8607 23.8055 25.3061 23.0999 25.5826 22.323C25.8593 21.546 25.9604 20.7172 25.8786 19.8963L25.9076 19.9239C25.8263 18.9581 25.9562 17.9862 26.2879 17.0759C26.6198 16.1657 27.1458 15.3391 27.8289 14.6537C28.5122 13.9684 29.3362 13.4408 30.2436 13.1081C31.1511 12.7751 32.1199 12.6449 33.0827 12.7264L33.0537 12.6988C34.2055 12.8074 35.3624 12.5568 36.367 11.9814C37.3718 11.406 38.1749 10.5337 38.6671 9.48359C39.1593 8.43347 39.3166 7.25659 39.1175 6.11347C38.9185 4.97036 38.3728 3.91668 37.5547 3.09613C36.7368 2.2756 35.6863 1.72814 34.5468 1.52847C33.4072 1.32878 32.2341 1.48658 31.1872 1.98034C30.1402 2.47409 29.2708 3.27978 28.6971 4.2875C28.1234 5.29521 27.8737 6.4559 27.9819 7.61123L27.9544 7.5821C28.0359 8.54793 27.9062 9.51997 27.5745 10.4303C27.2428 11.3407 26.7168 12.1675 26.0337 12.8529C25.3505 13.5382 24.5263 14.0658 23.6187 14.3985C22.7111 14.7313 21.7421 14.8613 20.7793 14.7796L20.8068 14.8087C19.9885 14.7261 19.162 14.8268 18.3874 15.1037C17.6127 15.3805 16.9089 15.8267 16.3272 16.4098C15.7454 16.9929 15.3001 17.6986 15.0234 18.4755C14.7469 19.2525 14.6459 20.0812 14.7277 20.9022L14.7001 20.8746C14.7812 21.8403 14.6511 22.8121 14.3192 23.7223C13.9872 24.6323 13.4614 25.4589 12.7783 26.1442C12.0951 26.8294 11.2711 27.3569 10.3638 27.6899C9.45653 28.0228 8.48774 28.1533 7.52503 28.072L7.55254 28.0996C6.40079 27.9911 5.24371 28.2416 4.23912 28.8171C3.23454 29.3925 2.43135 30.2647 1.93914 31.3149C1.44691 32.3651 1.28959 33.5419 1.48865 34.685C1.68772 35.8281 2.23348 36.8818 3.05146 37.7023C3.86946 38.5229 4.91987 39.0703 6.05943 39.27C7.199 39.4696 8.37222 39.3118 9.41909 38.8181C10.466 38.3244 11.3355 37.5187 11.9091 36.511C12.4828 35.5032 12.7326 34.3426 12.6243 33.1872L12.6534 33.2148C12.5721 32.249 12.702 31.2772 13.0338 30.3668C13.3655 29.4566 13.8915 28.63 14.5746 27.9446C15.2579 27.2594 16.082 26.7317 16.9893 26.399C17.8968 26.0661 18.8656 25.9358 19.8285 26.0174Z" fill="#394149"/>
<path d="M9.58399 22.9402C10.1633 22.3556 10.6069 21.65 10.883 20.8737C11.1592 20.0974 11.261 19.2694 11.1813 18.449L11.2104 18.4766C11.1291 17.5106 11.2589 16.5383 11.5909 15.6278C11.923 14.7173 12.4491 13.8906 13.1327 13.2052C13.8163 12.5198 14.6407 11.9924 15.5485 11.6597C16.4563 11.327 17.4256 11.1972 18.3886 11.2792L18.3595 11.2516C19.5108 11.3598 20.6675 11.1091 21.6716 10.5337C22.6757 9.95836 23.4784 9.0863 23.9704 8.03651C24.4623 6.9867 24.6195 5.81025 24.4205 4.66756C24.2214 3.52487 23.6757 2.4716 22.8581 1.65135C22.0405 0.831113 20.9903 0.283836 19.8513 0.0841654C18.7122 -0.115521 17.5393 0.0421367 16.4928 0.535594C15.4462 1.02905 14.5769 1.83431 14.0034 2.84156C13.4297 3.84881 13.1798 5.00902 13.2877 6.16396L13.2602 6.13635C13.3415 7.10213 13.2116 8.07406 12.8797 8.98431C12.5479 9.89456 12.0221 10.7212 11.3389 11.4065C10.6557 12.0919 9.8316 12.6194 8.92418 12.9522C8.01676 13.2851 7.04786 13.4154 6.08509 13.3338L6.1126 13.3614C5.17187 13.2768 4.22506 13.4318 3.35992 13.8119C2.49478 14.192 1.73928 14.7851 1.16346 15.5361C0.587627 16.287 0.2101 17.1718 0.0658339 18.108C-0.0784174 19.0444 0.0152688 20.0021 0.33821 20.8924C0.661151 21.7828 1.20292 22.5769 1.9133 23.2013C2.62367 23.8258 3.47967 24.2602 4.40198 24.4644C5.32427 24.6685 6.28304 24.6359 7.18944 24.3695C8.09582 24.103 8.92048 23.6114 9.58703 22.9402H9.58399Z" fill="#394149"/>
<path d="M56.9346 7.64648H61.4744V29.8077H56.9346V7.64648Z" fill="#394149"/>
<path d="M64.0454 22.2192C64.0391 20.6267 64.5041 19.0679 65.3815 17.7406C66.2589 16.4134 67.5093 15.3771 68.9743 14.7634C70.4392 14.1494 72.0528 13.9855 73.6107 14.2923C75.1686 14.5991 76.6008 15.3627 77.7256 16.4867C78.8505 17.6104 79.6175 19.044 79.9297 20.6055C80.2418 22.1671 80.0848 23.7864 79.4788 25.2584C78.8727 26.7303 77.8447 27.9888 76.5251 28.8742C75.2053 29.7597 73.6535 30.2324 72.0658 30.2324C71.012 30.2445 69.9663 30.0456 68.9899 29.6476C68.0134 29.2495 67.1259 28.6603 66.3792 27.9143C65.6323 27.1682 65.0414 26.2802 64.6408 25.3024C64.24 24.3246 64.0376 23.2764 64.0454 22.2192ZM75.5464 22.2192C75.5274 21.5327 75.3071 20.8671 74.9132 20.3054C74.5192 19.7439 73.9689 19.3112 73.3311 19.0617C72.6933 18.8121 71.9964 18.7566 71.3273 18.9023C70.6583 19.0479 70.0469 19.388 69.5695 19.8804C69.0923 20.3726 68.77 20.9951 68.6436 21.6701C68.5171 22.3449 68.5915 23.0423 68.8579 23.6749C69.1244 24.3076 69.5707 24.8473 70.1412 25.2268C70.7118 25.6063 71.3813 25.8087 72.0658 25.8087C72.5346 25.8213 73.001 25.7362 73.4355 25.5589C73.87 25.3817 74.2631 25.1161 74.5901 24.7789C74.917 24.4416 75.1709 24.04 75.3354 23.5995C75.5 23.159 75.5719 22.689 75.5464 22.2192Z" fill="#394149"/>
<path d="M98.1801 14.6293V29.0426C98.1801 34.1425 94.2149 36.2984 90.1902 36.2984C88.7732 36.4048 87.3543 36.1176 86.0891 35.4685C84.824 34.8193 83.7615 33.8332 83.0182 32.6184L86.8916 30.372C87.204 31.0053 87.7019 31.5277 88.3183 31.8695C88.935 32.2111 89.6408 32.3559 90.3415 32.2841C90.7894 32.3463 91.2455 32.3068 91.6761 32.1683C92.1066 32.0299 92.5007 31.796 92.829 31.4843C93.1573 31.1724 93.4115 30.7906 93.5729 30.3668C93.7342 29.9432 93.7984 29.4885 93.761 29.0365V27.6488C93.2293 28.3013 92.5528 28.8197 91.7853 29.1624C91.0178 29.5051 90.181 29.6626 89.3419 29.6222C87.3452 29.5591 85.4515 28.7191 84.0614 27.2799C82.6713 25.8409 81.894 23.9156 81.894 21.9119C81.894 19.9081 82.6713 17.9828 84.0614 16.5438C85.4515 15.1046 87.3452 14.2647 89.3419 14.2015C90.181 14.1612 91.0178 14.3186 91.7853 14.6613C92.5528 15.004 93.2293 15.5225 93.761 16.1749V14.6262L98.1801 14.6293ZM93.7625 21.9142C93.7931 21.1803 93.6038 20.454 93.2194 19.8288C92.8349 19.2035 92.2727 18.7081 91.6052 18.4062C90.9377 18.1041 90.1954 18.0095 89.4738 18.1343C88.7521 18.2592 88.0843 18.5977 87.556 19.1066C87.0279 19.6154 86.6636 20.271 86.51 20.9893C86.3566 21.7075 86.4208 22.4554 86.6947 23.1367C86.9684 23.8179 87.4392 24.4015 88.0464 24.8122C88.6535 25.2228 89.3694 25.4417 90.1016 25.4408C90.5786 25.4743 91.0572 25.4071 91.5068 25.2436C91.9563 25.0802 92.3667 24.824 92.7116 24.4918C93.0564 24.1596 93.3282 23.7586 93.5092 23.3146C93.6902 22.8707 93.7765 22.3936 93.7625 21.9142Z" fill="#394149"/>
<path d="M100.751 22.2192C100.745 20.6267 101.21 19.0679 102.087 17.7406C102.965 16.4134 104.215 15.3771 105.68 14.7634C107.145 14.1494 108.759 13.9855 110.317 14.2923C111.874 14.5991 113.307 15.3627 114.431 16.4867C115.556 17.6104 116.323 19.044 116.635 20.6055C116.948 22.1671 116.791 23.7864 116.185 25.2584C115.578 26.7303 114.551 27.9888 113.231 28.8742C111.911 29.7597 110.359 30.2324 108.772 30.2324C107.718 30.2445 106.672 30.0456 105.696 29.6476C104.719 29.2495 103.832 28.6603 103.085 27.9143C102.338 27.1682 101.747 26.2802 101.347 25.3024C100.946 24.3246 100.743 23.2764 100.751 22.2192ZM112.252 22.2192C112.233 21.5327 112.013 20.8671 111.619 20.3054C111.225 19.7439 110.675 19.3112 110.037 19.0617C109.399 18.8121 108.702 18.7566 108.033 18.9023C107.364 19.0479 106.753 19.388 106.275 19.8804C105.798 20.3726 105.476 20.9951 105.349 21.6701C105.223 22.3449 105.297 23.0423 105.564 23.6749C105.83 24.3076 106.277 24.8473 106.847 25.2268C107.418 25.6063 108.087 25.8087 108.772 25.8087C109.24 25.8213 109.707 25.7362 110.141 25.5589C110.576 25.3817 110.969 25.1161 111.296 24.7789C111.623 24.4416 111.877 24.04 112.041 23.5995C112.206 23.159 112.278 22.689 112.252 22.2192Z" fill="#394149"/>
<path d="M118.909 10.5615C118.909 10.0211 119.069 9.4928 119.368 9.04347C119.667 8.59413 120.093 8.2439 120.591 8.0371C121.088 7.83029 121.636 7.77617 122.164 7.88161C122.693 7.98704 123.178 8.24728 123.559 8.62941C123.94 9.01153 124.199 9.4984 124.305 10.0284C124.41 10.5585 124.356 11.1079 124.15 11.6071C123.943 12.1064 123.594 12.5332 123.146 12.8334C122.698 13.1337 122.172 13.2939 121.633 13.2939C120.913 13.2867 120.224 12.9966 119.715 12.4857C119.205 11.9748 118.916 11.2839 118.909 10.5615ZM119.368 14.6294H123.909V29.8094H119.361L119.368 14.6294Z" fill="#394149"/>
<path d="M143.511 22.2195C143.564 23.2227 143.418 24.2265 143.082 25.173C142.747 26.1195 142.228 26.9901 141.556 27.7349C140.884 28.4795 140.071 29.0836 139.166 29.5123C138.26 29.9409 137.279 30.1858 136.278 30.2327C135.437 30.2787 134.596 30.1364 133.816 29.8161C133.036 29.4956 132.338 29.0052 131.77 28.3804V35.8799H127.23V14.6295H131.77V16.0555C132.338 15.4311 133.037 14.941 133.816 14.621C134.596 14.3009 135.437 14.1587 136.278 14.2047C137.279 14.2515 138.26 14.4962 139.166 14.9249C140.072 15.3537 140.885 15.9578 141.557 16.7027C142.229 17.4476 142.748 18.3185 143.083 19.2654C143.419 20.212 143.564 21.2161 143.511 22.2195ZM138.971 22.2195C138.954 21.5091 138.727 20.8197 138.321 20.2375C137.915 19.6554 137.346 19.2065 136.687 18.947C136.027 18.6874 135.306 18.6287 134.613 18.7784C133.921 18.9279 133.288 19.279 132.793 19.7878C132.298 20.2967 131.964 20.9404 131.833 21.6388C131.701 22.3371 131.778 23.0587 132.053 23.7136C132.328 24.3684 132.79 24.9272 133.38 25.3202C133.971 25.713 134.663 25.9226 135.372 25.9225C135.858 25.9442 136.344 25.8625 136.796 25.6828C137.249 25.5033 137.659 25.2296 137.998 24.88C138.338 24.5302 138.601 24.1125 138.768 23.6541C138.936 23.1956 139.005 22.7066 138.971 22.2195Z" fill="#394149"/>
<path d="M157.521 25.2537C157.521 28.7451 154.496 30.2324 151.228 30.2324C149.907 30.3523 148.581 30.0724 147.421 29.4282C146.261 28.7842 145.32 27.8059 144.72 26.6199L148.653 24.3736C148.813 24.9217 149.154 25.3988 149.622 25.7246C150.089 26.0506 150.654 26.2059 151.221 26.1645C152.31 26.1645 152.856 25.8302 152.856 25.2246C152.856 23.5532 145.41 24.4349 145.41 19.1832C145.41 15.8728 148.195 14.2045 151.342 14.2045C152.525 14.1669 153.696 14.4484 154.734 15.0196C155.772 15.5909 156.639 16.4309 157.243 17.4521L153.369 19.5466C153.199 19.149 152.917 18.8103 152.556 18.5728C152.195 18.3353 151.773 18.2096 151.342 18.2111C150.555 18.2111 150.07 18.5178 150.07 19.0606C150.077 20.7917 157.521 19.6371 157.521 25.2537Z" fill="#394149"/>
<path d="M174.104 14.6299V29.8099H169.564V28.3823C169.04 29.0122 168.375 29.5086 167.623 29.8306C166.871 30.1526 166.055 30.291 165.238 30.2346C162.181 30.2346 159.583 28.0496 159.583 23.9479V14.6299H164.123V23.281C164.084 23.6425 164.126 24.0081 164.243 24.352C164.36 24.6961 164.551 25.0104 164.801 25.2731C165.052 25.5357 165.356 25.7404 165.694 25.8731C166.03 26.0057 166.393 26.063 166.755 26.0409C168.419 26.0409 169.569 25.0703 169.569 22.9145V14.6345L174.104 14.6299Z" fill="#394149"/>
<path d="M200.136 20.4887V29.8083H195.596V20.8828C195.596 19.3648 194.87 18.3942 193.418 18.3942C191.904 18.3942 191.056 19.4568 191.056 21.2477V29.8083H186.518V20.8828C186.518 19.3648 185.792 18.3942 184.338 18.3942C182.825 18.3942 181.978 19.4568 181.978 21.2477V29.8083H177.438V14.6283H181.978V16.0236C182.449 15.4046 183.066 14.9136 183.774 14.5958C184.483 14.2778 185.26 14.143 186.033 14.2036C186.81 14.1654 187.583 14.3299 188.279 14.6809C188.973 15.0317 189.564 15.5573 189.997 16.2061C190.5 15.5273 191.166 14.9876 191.933 14.6373C192.701 14.2871 193.545 14.1379 194.385 14.2036C197.86 14.2051 200.136 16.6937 200.136 20.4887Z" fill="#394149"/>
<path d="M203.975 14.5363C205.836 14.5363 207.344 13.0232 207.344 11.1568C207.344 9.29038 205.836 7.77734 203.975 7.77734C202.115 7.77734 200.606 9.29038 200.606 11.1568C200.606 13.0232 202.115 14.5363 203.975 14.5363Z" fill="#394149"/>
</svg>
