<svg width="30" height="30" viewBox="0 0 30 30" fill="none" xmlns="http://www.w3.org/2000/svg">
<path fill-rule="evenodd" clip-rule="evenodd" d="M2.5 15C2.5 8.1 8.1 2.5 15 2.5C21.9 2.5 27.5 8.1 27.5 15C27.5 21.9 21.9 27.5 15 27.5C8.1 27.5 2.5 21.9 2.5 15ZM7.12499 15.875L11.6125 20.3625C12.1 20.85 12.9 20.85 13.375 20.3625L22.8625 10.875C23.35 10.3875 23.35 9.60004 22.8625 9.11254C22.375 8.62504 21.5875 8.62504 21.1 9.11254L12.5 17.7125L8.88749 14.1125C8.39999 13.625 7.61249 13.625 7.12499 14.1125C6.89092 14.3461 6.75938 14.6631 6.75938 14.9938C6.75938 15.3244 6.89092 15.6415 7.12499 15.875Z" fill="#00C04D"/>
</svg>
